<?xml version="1.0" standalone="no"?>
<!DOCTYPE svg PUBLIC "-//W3C//DTD SVG 20010904//EN"
 "http://www.w3.org/TR/2001/REC-SVG-20010904/DTD/svg10.dtd">
<svg version="1.0" xmlns="http://www.w3.org/2000/svg"
 width="771.000000pt" height="771.000000pt" viewBox="0 0 771.000000 771.000000"
 preserveAspectRatio="xMidYMid meet">
<metadata>
Created by potrace 1.11, written by Peter Selinger 2001-2013
</metadata>
<g transform="translate(0.000000,771.000000) scale(0.100000,-0.100000)"
fill="#000000" stroke="none">
<path d="M1408 7455 c-2 -2 -64 -6 -138 -9 -128 -6 -195 -11 -318 -21 -84 -7
-240 -24 -282 -30 -14 -2 -45 -7 -70 -10 -161 -21 -361 -69 -443 -105 -81 -36
-113 -82 -88 -128 5 -9 11 -33 14 -52 3 -19 13 -84 22 -145 9 -60 19 -123 21
-140 3 -16 6 -43 8 -60 4 -34 17 -120 22 -150 2 -10 6 -37 9 -60 3 -22 8 -51
10 -65 3 -14 7 -45 10 -70 3 -25 7 -56 10 -70 3 -14 8 -45 11 -70 3 -25 7 -52
9 -60 2 -8 7 -40 10 -70 3 -30 10 -80 15 -110 6 -30 12 -73 15 -95 7 -57 17
-127 22 -150 2 -11 6 -38 9 -60 3 -22 9 -62 14 -90 5 -27 12 -66 14 -85 3 -19
8 -46 11 -60 3 -14 9 -50 15 -80 6 -30 12 -66 15 -80 3 -14 7 -36 10 -50 3
-14 7 -36 10 -50 3 -14 8 -34 10 -45 3 -11 7 -31 10 -45 4 -14 8 -36 11 -50
22 -110 95 -361 145 -498 l31 -83 -36 -31 c-76 -64 -163 -202 -195 -308 -29
-95 -41 -263 -26 -344 5 -25 -1 -37 -38 -75 -145 -152 -239 -356 -274 -596 -9
-62 -10 -283 -1 -350 30 -238 197 -602 368 -804 64 -75 73 -84 144 -149 97
-88 347 -226 446 -246 14 -3 50 -12 80 -20 65 -18 109 -26 170 -32 25 -2 65
-6 90 -9 25 -2 54 -4 64 -5 16 0 12 -6 -16 -27 -20 -16 -83 -67 -141 -115 -58
-49 -108 -88 -110 -88 -3 0 -22 -8 -43 -17 -22 -9 -43 -18 -49 -19 -5 -2 -59
-24 -120 -49 -116 -50 -310 -126 -385 -151 -25 -9 -49 -20 -54 -25 -6 -5 -16
-9 -22 -9 -18 0 -260 -109 -311 -139 -75 -45 -49 -65 64 -51 38 5 100 11 138
15 39 4 81 8 95 10 14 2 52 7 85 11 33 3 68 8 77 10 27 4 22 -3 -29 -49 -26
-23 -54 -49 -63 -57 -20 -18 -91 -82 -184 -164 -145 -129 -166 -151 -157 -164
10 -17 62 -4 159 39 37 17 76 34 87 39 11 5 70 33 130 61 61 29 112 53 115 54
3 1 16 6 30 12 14 6 52 22 85 36 70 29 271 97 288 97 7 0 -11 -12 -38 -26 -28
-15 -81 -46 -118 -70 -37 -24 -70 -44 -72 -44 -4 0 -50 -28 -175 -108 -30 -19
-71 -45 -90 -57 -169 -107 -320 -209 -320 -216 0 -5 12 -12 26 -15 24 -6 343
1 429 10 22 2 83 7 135 11 52 3 122 9 155 11 33 3 155 7 270 9 116 2 345 7
510 11 165 3 325 7 355 9 163 8 332 17 385 21 33 2 103 6 155 9 134 7 247 15
404 30 32 3 82 8 110 10 28 3 72 7 99 10 26 3 71 8 100 11 28 3 63 7 77 9 14
2 90 14 170 25 80 12 177 27 215 35 39 8 81 16 95 19 44 9 85 18 143 32 4 1 8
2 10 4 1 1 16 4 32 6 40 7 222 59 315 91 146 50 503 194 544 220 61 40 126
104 126 127 0 33 15 5 30 -54 35 -145 89 -284 136 -346 48 -65 189 -125 280
-119 98 6 162 49 179 117 4 16 10 28 14 28 3 0 31 -46 61 -102 97 -182 151
-215 295 -184 85 18 132 37 202 82 100 64 139 121 172 251 20 76 21 108 5 136
-4 6 9 -3 29 -22 20 -19 35 -37 34 -42 -1 -4 15 -25 35 -47 145 -154 437 -100
535 99 25 50 35 122 21 158 -12 33 -2 38 30 14 15 -11 39 -24 52 -28 14 -4 30
-11 36 -16 19 -15 144 -17 205 -3 274 64 353 298 161 475 -60 56 -129 94 -188
105 -21 3 -47 8 -58 10 -26 5 -32 12 -18 26 17 17 14 77 -6 118 -16 33 -16 38
1 88 22 65 24 165 4 212 -20 47 -96 120 -168 161 -32 19 -59 37 -59 40 0 4 14
12 30 19 17 7 30 16 30 21 0 5 8 9 18 9 24 0 82 37 115 73 55 62 60 172 14
300 -31 85 -61 129 -114 168 -25 17 -43 38 -43 49 0 34 -52 164 -87 217 -81
123 -195 159 -314 100 l-46 -23 18 57 c15 47 17 114 4 127 -2 2 23 47 54 100
142 239 256 495 334 747 23 72 65 288 72 365 11 131 2 374 -20 500 -2 14 -7
41 -9 60 -14 92 -35 192 -57 280 -31 119 -39 148 -81 274 -21 66 -36 126 -33
133 6 17 -7 44 -86 170 -108 172 -157 241 -196 277 -37 34 -135 93 -170 101
-10 3 -45 12 -78 20 -57 15 -310 24 -322 11 -3 -2 -15 5 -27 17 -37 36 -119
110 -162 144 -21 18 -60 49 -86 70 -48 39 -96 123 -291 517 -84 168 -117 204
-247 268 -128 63 -224 93 -284 90 -22 -1 -56 -30 -56 -49 0 -7 -6 -14 -12 -15
-65 -7 -100 -21 -129 -49 -32 -31 -68 -101 -69 -132 0 -16 -8 -17 -82 -12 -71
5 -87 3 -114 -13 -35 -22 -54 -74 -54 -146 l0 -47 -71 50 c-171 120 -293 113
-396 -24 -12 -17 -16 -17 -21 -5 -11 32 -72 78 -110 85 -42 7 -88 8 -112 3
-27 -6 -124 -65 -159 -97 -19 -17 -36 -29 -38 -27 -3 2 -6 64 -7 138 -2 91 -7
140 -16 155 -26 41 -133 88 -280 122 -76 18 -112 25 -255 46 -22 3 -51 7 -65
10 -92 14 -340 36 -580 52 -92 5 -1006 13 -1012 8z"/>
</g>
</svg>
